<svg version="1.1" xmlns="http://www.w3.org/2000/svg" viewBox="0 0 797.5 130">
	<g>
		<path fill="currentColor" d="M121.2,26H86.7v104H60.8V26H26v104H0V17.4C0,5.9,5.8,0,17.4,0l0,0H130c11.5,0,17.4,5.8,17.4,17.4l0,0V130h-26L121.2,26z
		 M268.7,17.4v95.3c0,11.5-5.8,17.4-17.4,17.4l0,0H182c-11.5,0-17.4-5.8-17.4-17.4l0,0V17.4C164.6,5.9,170.4,0,182,0l0,0h69.3
		C262.9,0,268.7,5.9,268.7,17.4L268.7,17.4z M242.7,26h-52v78h52V26z M372.6,78h-3.3l20.8,52h-25.9l-21.7-52H312v52h-26V17.4
		c0-11.5,5.8-17.4,17.4-17.4l0,0h69.3C384.1,0,390,5.8,390,17.4l0,0v43.3C390,72.2,384.2,78,372.6,78L372.6,78z M312,52h52V26h-52
		V52z M528.6,26h-34.5v104h-25.9V26h-34.7v104h-26V17.4c0-11.5,5.8-17.4,17.4-17.4l0,0h112.6c11.6,0,17.4,5.8,17.4,17.4l0,0V130h-26
		L528.6,26z M675.9,17.4v95.3c0,11.5-5.8,17.4-17.4,17.4l0,0h-69.3c-11.5,0-17.4-5.8-17.4-17.4l0,0V17.4c0-11.5,5.8-17.4,17.4-17.4
		l0,0h69.4C670.2,0,675.9,5.9,675.9,17.4L675.9,17.4z M650,26h-52v78h52V26z M780,78h-3.3l20.8,52h-25.9l-21.7-52h-30.4v52h-26V17.4
		c0-11.5,5.8-17.4,17.4-17.4l0,0H780c11.5,0,17.4,5.8,17.4,17.4l0,0v43.3C797.3,72.2,791.5,78,780,78L780,78z M719.3,52h52V26h-52
		V52z" />
	</g>
</svg>