<svg xmlns="http://www.w3.org/2000/svg" fill="none" viewBox="0 0 36 36">
  <path fill="#000" d="M18,28c-1.9,0-3.6-0.7-5-2c-1.4,2.1-0.4,4.4,0.6,5.5c0.1,0.2,0.4,0.1,0.5-0.1c0.4-1.8,2.9-1.2,2.9,0.6
	c0,2.3,0.9,3.4,1.7,3.8c0.3,0.2,0.6-0.2,0.5-0.6c-0.3-1-0.3-2.5,1.3-3.2c3-1.5,3.2-4.8,2.5-6C22.3,26.7,20.4,28,18,28z" />
  <path fill="#000"
    d="M25.6,8.2h-5.5v16.7h-4.1V8.2h-5.6v16.7H6.2v-18C6.2,4.9,7.1,4,9,4l0,0h18c1.8,0,2.8,0.9,2.8,2.8l0,0v18h-4.2L25.6,8.2z" />
  <style>
    @media (prefers-color-scheme:dark) {
      :root {
        filter: invert(100%)
      }
    }
  </style>
</svg>